<svg width="14" height="17" viewBox="0 0 14 17" fill="none" xmlns="http://www.w3.org/2000/svg">
<g clip-path="url(#clip0_1_59)">
<path d="M6.63398 1.27764C7.61566 0.561316 8.93152 0.564902 9.90972 1.28123L13.3612 3.81345C13.5997 3.98716 13.6554 4.32742 13.4848 4.57276L12.4579 6.05556C12.2891 6.3009 11.9584 6.35821 11.7199 6.18271L8.85833 4.08331C8.50702 3.82558 8.02926 3.82497 7.67731 4.08183L3.64342 7.02567C3.38546 7.21393 3.23292 7.51409 3.23292 7.83344V16.0107C3.23292 16.3116 2.9962 16.5551 2.70379 16.5551H0.935377C0.642963 16.5551 0.40625 16.3116 0.40625 16.0107V1.78266C0.40625 1.4818 0.642963 1.23825 0.935377 1.23825H2.70379C2.9962 1.23825 3.23292 1.4818 3.23292 1.78266C3.23292 2.60054 4.16132 3.08088 4.82215 2.59896L6.63398 1.27764Z" fill="#F9FAFB"/>
</g>
<defs>
<clipPath id="clip0_1_59">
<rect width="14" height="17" fill="white"/>
</clipPath>
</defs>
</svg>
