<svg width="120" height="26" viewBox="0 0 120 26" fill="none" xmlns="http://www.w3.org/2000/svg">
<path d="M24.1226 1.90276V4.05564C24.1226 4.40723 23.8167 4.65673 23.3856 4.65673H20.7457C20.317 4.65673 20.0087 4.40723 20.0087 4.05564V1.90276C20.0087 1.55309 20.3146 1.30169 20.7457 1.30169H23.3856C23.8167 1.30169 24.1226 1.55309 24.1226 1.90276ZM84.8856 7.50896C78.934 7.50896 74.3912 11.1116 74.3912 15.8672C74.3912 20.7211 78.934 24.3748 84.8856 24.3748C90.8376 24.3748 95.3804 20.7211 95.3804 15.8672C95.3804 11.1135 90.8376 7.50896 84.8856 7.50896ZM84.8856 21.5226C81.08 21.5226 78.2572 19.0691 78.2572 15.8672C78.2572 12.7125 81.08 10.3612 84.8856 10.3612C88.6916 10.3612 91.5144 12.7125 91.5144 15.8672C91.512 19.071 88.6892 21.5226 84.8856 21.5226ZM72.1244 15.8672C72.1244 20.7211 67.6444 24.3748 61.63 24.3748C58.93 24.3748 56.5984 23.3239 55.0012 21.9214V23.373C55.0012 23.7227 54.6328 24.0233 54.204 24.0233H52.0556C51.6268 24.0233 51.2584 23.7227 51.2584 23.373V1.90087C51.2584 1.5512 51.5644 1.2998 51.9328 1.2998H54.3268C54.6956 1.2998 55.0012 1.5512 55.0012 1.90087V9.80928C56.596 8.45783 58.99 7.50896 61.63 7.50896C67.6444 7.50896 72.1244 11.1135 72.1244 15.8672ZM68.3188 15.8672C68.3188 12.7125 65.4332 10.3612 61.63 10.3612C57.8244 10.3612 55.0012 12.7125 55.0012 15.8672C55.0012 19.071 57.8244 21.5226 61.63 21.5226C65.4356 21.5226 68.3188 19.071 68.3188 15.8672ZM48.6184 15.8672C48.6184 20.7211 44.078 24.3748 38.0636 24.3748C35.3635 24.3748 33.0319 23.3239 31.4976 21.9214V23.373C31.4976 23.7227 31.129 24.0233 30.7003 24.0233H28.4915C28.0604 24.0233 27.6942 23.7227 27.6942 23.373V1.90087C27.6942 1.5512 28.0002 1.2998 28.4312 1.2998H30.7628C31.1916 1.2998 31.4999 1.5512 31.4999 1.90087V9.80928C33.0968 8.45783 35.4886 7.50896 38.0659 7.50896C44.078 7.50896 48.6184 11.1135 48.6184 15.8672ZM44.7524 15.8672C44.7524 12.7125 41.9296 10.3612 38.0636 10.3612C34.3205 10.3612 31.4976 12.7125 31.4976 15.8672C31.4976 19.071 34.3205 21.5226 38.0636 21.5226C41.9296 21.5226 44.7524 19.071 44.7524 15.8672ZM23.272 7.85863H20.8778C20.5093 7.85863 20.2034 8.11002 20.2034 8.45972V23.4241C20.2034 23.7756 20.5093 24.0251 20.8778 24.0251H23.272C23.6406 24.0251 23.9465 23.7756 23.9465 23.4241V8.45972C23.9465 8.11002 23.6406 7.85863 23.272 7.85863ZM118.764 13.497C118.764 13.0018 118.469 12.5387 117.976 12.2514L110.499 7.904C109.201 7.14984 107.453 7.14795 106.153 7.90023L101.64 10.5086V8.43323C101.64 8.11759 101.325 7.86052 100.938 7.86052H98.5928C98.2056 7.86052 97.8904 8.11759 97.8904 8.43323V23.4524C97.8904 23.7681 98.2056 24.0251 98.5928 24.0251H100.938C101.325 24.0251 101.64 23.7681 101.64 23.4524V14.2606L108.32 10.3971L115.009 14.2851V14.9184H115.007V23.4524C115.007 23.7681 115.322 24.0251 115.709 24.0251H118.054C118.442 24.0251 118.757 23.7681 118.757 23.4524V18.5475H118.761V13.497H118.764ZM12.6546 7.90212C11.3521 7.14604 9.59992 7.14227 8.29272 7.89831L3.76394 10.5162V8.43134C3.76394 8.11382 3.44874 7.85674 3.05936 7.85674H0.704576C0.315202 7.85674 0 8.11382 0 8.43134V23.4486C0 23.7662 0.315202 24.0233 0.704576 24.0233H3.05936C3.44874 24.0233 3.76394 23.7662 3.76394 23.4486V14.2814L10.469 10.4028L15.065 13.0755C15.3826 13.2607 15.823 13.2002 16.0478 12.9413L17.4152 11.3762C17.6423 11.1173 17.5682 10.7581 17.2506 10.5748L12.6546 7.90212Z" fill="white"/>
</svg>
