<svg width="202" height="71" viewBox="0 0 202 71" fill="none" xmlns="http://www.w3.org/2000/svg">
<g clip-path="url(#clip0_1_92)">
<path fill-rule="evenodd" clip-rule="evenodd" d="M34.0558 22.187L31.0551 26.2816C29.5785 28.3289 30.0072 31.995 32.0553 33.471L37.6281 37.4703C38.5807 38.1369 38.6759 38.8511 38.1996 39.5652L39.0093 40.1842L41.8195 36.28C43.5342 33.8995 43.3913 30.6143 40.8193 28.7574L35.2465 24.7104C34.5797 24.2343 34.5321 23.5201 34.8655 22.7584L34.0558 22.187Z" fill="white"/>
<path fill-rule="evenodd" clip-rule="evenodd" d="M38.8187 3.99902L34.151 10.4266C31.96 13.4261 32.7697 18.5682 35.7228 20.7583L43.3912 26.3765C44.963 27.5191 45.1536 30.4234 44.0104 31.8994L44.6773 32.3755L49.9642 24.9481C52.3457 21.6153 52.2028 16.7113 48.4877 13.9975L40.2953 8.09362C39.1521 7.28422 38.5806 5.85587 39.5332 4.52275L38.8187 3.99902Z" fill="white"/>
<path fill-rule="evenodd" clip-rule="evenodd" d="M26.5779 44.3264H32.7222L33.8177 48.0401C37.1518 48.0401 40.5335 48.0401 43.8677 48.0401L44.9632 44.3264H51.1075L50.2978 41.5649C42.6293 41.5649 34.9608 41.5649 27.34 41.5649L26.5779 44.3264Z" fill="white"/>
<path fill-rule="evenodd" clip-rule="evenodd" d="M58.3948 63.4662C58.3948 63.4186 58.3948 63.3709 58.3948 63.3233C58.3948 63.2757 58.3472 63.2281 58.2995 63.1805C58.2519 63.1329 58.2043 63.1329 58.1566 63.0853C58.109 63.0377 58.0137 63.0377 57.9185 62.9901C57.8232 62.9424 57.7756 62.9424 57.728 62.8948C57.6803 62.8948 57.6327 62.8472 57.6327 62.8472C57.5851 62.7996 57.5851 62.7996 57.5851 62.752C57.5851 62.7044 57.5851 62.7044 57.5851 62.6568C57.5851 62.6092 57.5851 62.6092 57.5851 62.5615C57.5851 62.5139 57.6327 62.5139 57.6327 62.5139C57.6803 62.5139 57.6803 62.4663 57.728 62.4663C57.7756 62.4663 57.8232 62.4663 57.8709 62.4663C57.9661 62.4663 58.0137 62.4663 58.0614 62.5139C58.109 62.5615 58.1566 62.5615 58.2519 62.6092L58.3472 62.4663C58.2995 62.4187 58.2043 62.3711 58.1566 62.3235C58.0614 62.2759 58.0137 62.2759 57.8709 62.2759C57.7756 62.2759 57.728 62.2759 57.6803 62.3235C57.6327 62.3235 57.5851 62.3711 57.5374 62.4187C57.4898 62.4663 57.4422 62.5139 57.4422 62.5615C57.4422 62.6092 57.3946 62.6568 57.3946 62.7044C57.3946 62.752 57.3946 62.7996 57.3946 62.8472C57.3946 62.8948 57.4422 62.9424 57.4898 62.9424C57.5374 62.99 57.5851 62.99 57.6327 63.0377C57.6803 63.0853 57.7756 63.0853 57.8709 63.1329C57.9661 63.1805 58.0137 63.1805 58.0614 63.2281C58.109 63.2757 58.1566 63.2757 58.1566 63.3233C58.2043 63.3709 58.2043 63.3709 58.2043 63.4186C58.2043 63.4662 58.2043 63.4662 58.2043 63.5138C58.2043 63.609 58.1566 63.6566 58.109 63.7042C58.0614 63.7518 57.9661 63.7518 57.8709 63.7518C57.7756 63.7518 57.728 63.7518 57.6327 63.7042C57.5851 63.6566 57.4898 63.609 57.4422 63.5614L57.3469 63.7042C57.3946 63.7518 57.4898 63.7994 57.5851 63.8471C57.6803 63.8947 57.7756 63.8947 57.8709 63.8947C57.9661 63.8947 58.0137 63.8947 58.109 63.8471C58.1566 63.8471 58.2043 63.7994 58.2519 63.7518C58.2995 63.7042 58.3472 63.6566 58.3472 63.609C58.3948 63.609 58.3948 63.5614 58.3948 63.4662Z" fill="white"/>
<path fill-rule="evenodd" clip-rule="evenodd" d="M60.0617 63.8947V62.3711H59.8712L59.4902 63.2757C59.4902 63.2757 59.4902 63.3233 59.4425 63.3709C59.4425 63.4186 59.4425 63.4186 59.3949 63.4662C59.3949 63.5138 59.3949 63.5138 59.3473 63.5614C59.3473 63.609 59.3473 63.609 59.3473 63.609V63.5614C59.3473 63.5138 59.3473 63.5138 59.2996 63.4662C59.2996 63.4186 59.2996 63.4186 59.252 63.3709C59.252 63.3233 59.252 63.3233 59.2044 63.2757L58.8233 62.3711H58.6328V63.8947H58.8233V62.8472V62.7044V62.752V62.7996C58.8233 62.7996 58.8233 62.8472 58.871 62.8472C58.871 62.8948 58.871 62.8948 58.9186 62.8948L59.3473 63.8947L59.7759 62.8948C59.7759 62.8948 59.7759 62.8472 59.8236 62.8472C59.8236 62.8472 59.8236 62.7996 59.8712 62.7996V62.752V62.7044V62.8472V63.8947H60.0617Z" fill="white"/>
<path fill-rule="evenodd" clip-rule="evenodd" d="M31.8646 59.6575C31.5788 57.8959 30.8644 57.4674 29.4355 56.8485C30.5309 56.2295 31.1978 55.2773 31.1978 53.9918C31.1978 51.4207 29.102 50.4209 26.8158 50.4209H20.481V63.9426H26.8158C29.4831 63.9426 32.3409 62.7523 31.8646 59.6575ZM23.3388 52.9919H26.6729C28.721 52.9919 28.8163 55.8962 26.8158 55.8962H23.3388V52.9919ZM27.0539 61.3716H23.3388V58.2768H27.0539C29.7689 58.2768 29.5783 61.3716 27.0539 61.3716Z" fill="white"/>
<path fill-rule="evenodd" clip-rule="evenodd" d="M44.5343 59.6575C44.2485 57.8959 43.5341 57.4674 42.1051 56.8485C43.2006 56.2295 43.8675 55.2773 43.8675 53.9918C43.8675 51.4207 41.7717 50.4209 39.4855 50.4209H33.103V63.9426H39.4379C42.1528 63.9426 45.0106 62.7523 44.5343 59.6575ZM36.0085 52.9919H39.3426C41.3907 52.9919 41.486 55.8962 39.4855 55.8962H36.0561V52.9919H36.0085ZM39.7236 61.3716H36.0085V58.2768H39.7236C42.4386 58.2768 42.248 61.3716 39.7236 61.3716Z" fill="white"/>
<path fill-rule="evenodd" clip-rule="evenodd" d="M57.204 59.6575C56.9182 57.8959 56.2037 57.4674 54.7748 56.8485C55.8703 56.2295 56.5371 55.2773 56.5371 53.9918C56.5371 51.4207 54.4414 50.4209 52.1552 50.4209H45.7727V63.9426H52.1075C54.7748 63.9426 57.6326 62.7523 57.204 59.6575ZM48.6782 52.9919H52.0123C54.0604 52.9919 54.1556 55.8962 52.1552 55.8962H48.7258V52.9919H48.6782ZM52.3457 61.3716H48.6305V58.2768H52.3457C55.0606 58.2768 54.9177 61.3716 52.3457 61.3716Z" fill="white"/>
<path d="M124.41 29.2333C124.41 28.662 124.267 28.2811 123.934 28.043C123.6 27.8049 123.124 27.6621 122.552 27.6621H119.123V30.8521H122.552C123.791 30.8521 124.41 30.3284 124.41 29.2333Z" fill="white"/>
<path d="M99.4046 48.0879H96.0228V51.2779H99.4046C100.024 51.2779 100.5 51.135 100.786 50.8494C101.072 50.5637 101.215 50.1828 101.215 49.6591C101.215 48.6116 100.595 48.0879 99.4046 48.0879Z" fill="white"/>
<path d="M191.712 0H10.2881C4.62014 0 0 4.61832 0 10.2841V60.2286C0 65.8468 4.62014 70.4651 10.2881 70.4651H191.712C197.38 70.4651 202 65.8468 202 60.181V10.2841C202 4.61832 197.38 0 191.712 0ZM153.227 25.2817H155.846V37.6607H153.227V25.2817ZM71.0167 69.7509H10.2881C5.00118 69.7509 0.714454 65.4659 0.714454 60.181V10.2841C0.714454 4.99921 5.00118 0.714173 10.2881 0.714173H71.0167V69.7509ZM88.5447 37.6607L87.4968 34.8993H82.7338L81.6859 37.6607H78.8757L83.8769 25.2817H86.4013L91.3549 37.6607H88.5447ZM92.2598 34.0899C91.9741 33.3281 91.8312 32.4235 91.8312 31.4236C91.8312 30.4714 91.9741 29.6144 92.2598 28.8526C92.5456 28.0908 92.9267 27.3767 93.4506 26.8529C93.9745 26.2816 94.5461 25.8531 95.2606 25.5674C95.975 25.2341 96.7371 25.0913 97.5944 25.0913C98.2136 25.0913 98.7376 25.1389 99.2615 25.2817C100.405 25.615 101.595 26.4244 102.405 27.2814L100.595 29.0431C99.9283 28.186 98.547 27.5195 97.5944 27.5195C97.1181 27.5195 96.6895 27.6147 96.3084 27.8052C95.9274 27.9956 95.594 28.2813 95.3558 28.6146C95.1177 28.9478 94.8795 29.3763 94.7366 29.8525C94.5937 30.3286 94.5461 30.8523 94.5461 31.4236C94.5461 31.995 94.5937 32.4711 94.7366 32.9948C94.8795 33.4709 95.07 33.8994 95.3558 34.2327C95.6416 34.566 95.9274 34.8517 96.356 35.0421C96.7371 35.2326 97.1658 35.3278 97.6421 35.3278C98.6423 35.3278 100.262 34.566 100.786 33.7566L102.643 35.423C101.881 36.9466 99.1186 37.8036 97.5468 37.8036C96.6895 37.8036 95.9274 37.6608 95.2129 37.3751C94.4985 37.0894 93.9269 36.6609 93.403 36.0896C92.9267 35.5658 92.5456 34.8993 92.2598 34.0899ZM103.501 51.3729C103.262 51.8966 102.977 52.2775 102.596 52.6108C102.215 52.9441 101.738 53.1821 101.167 53.3726C100.595 53.563 99.9759 53.6106 99.3091 53.6106H93.5459V41.2316H99.3568C100.595 41.2316 101.595 41.5173 102.31 42.0886C103.024 42.66 103.405 43.4694 103.405 44.5168C103.405 45.0405 103.31 45.5167 103.072 45.9452C102.834 46.3737 102.5 46.7069 102.072 46.945C102.596 47.1831 103.024 47.5163 103.358 47.9448C103.691 48.3734 103.882 48.9447 103.882 49.6589C103.834 50.2778 103.739 50.8492 103.501 51.3729ZM104.31 34.0899C104.025 33.3281 103.882 32.4235 103.882 31.4236C103.882 30.4714 104.025 29.6144 104.31 28.8526C104.596 28.0908 104.977 27.3767 105.501 26.8529C106.025 26.2816 106.597 25.8531 107.311 25.5674C108.025 25.2341 108.788 25.0913 109.645 25.0913C110.264 25.0913 110.788 25.1389 111.312 25.2817C112.455 25.615 113.646 26.4244 114.456 27.2814L112.646 29.0431C111.979 28.186 110.597 27.5195 109.645 27.5195C109.169 27.5195 108.74 27.6147 108.359 27.8052C107.978 27.9956 107.644 28.2813 107.406 28.6146C107.168 28.9478 106.93 29.3763 106.787 29.8525C106.644 30.3286 106.597 30.8523 106.597 31.4236C106.597 31.995 106.644 32.4711 106.787 32.9948C106.93 33.4709 107.12 33.8994 107.406 34.2327C107.692 34.566 107.978 34.8517 108.407 35.0421C108.788 35.2326 109.216 35.3278 109.693 35.3278C110.693 35.3278 112.312 34.566 112.836 33.7566L114.694 35.423C113.932 36.9466 111.169 37.8036 109.597 37.8036C108.74 37.8036 107.978 37.6608 107.263 37.3751C106.549 37.0894 105.977 36.6609 105.453 36.0896C104.977 35.5658 104.596 34.8993 104.31 34.0899ZM115.837 48.1829C115.837 49.9921 115.361 51.3729 114.456 52.3727C113.551 53.3726 112.265 53.8487 110.645 53.8487C109.883 53.8487 109.169 53.7058 108.549 53.4678C107.93 53.2297 107.359 52.8488 106.93 52.3727C106.501 51.8966 106.12 51.3253 105.882 50.6111C105.644 49.8969 105.501 49.1351 105.501 48.1829V41.2792H108.025V48.1829C108.025 49.1827 108.264 49.9921 108.74 50.5635C109.216 51.1348 109.835 51.4205 110.645 51.4205C111.455 51.4205 112.074 51.1348 112.55 50.5635C113.027 49.9921 113.265 49.2304 113.265 48.2305V41.2792H115.789V48.1829H115.837ZM116.551 25.2817H122.648C123.267 25.2817 123.839 25.377 124.363 25.5198C124.887 25.6626 125.411 25.9007 125.792 26.234C126.22 26.5673 126.506 26.9958 126.744 27.4719C126.982 27.948 127.078 28.5193 127.078 29.1859C127.078 30.1381 126.887 30.8999 126.458 31.4712C126.03 32.0902 125.125 32.6139 124.267 32.9472L127.173 37.6607H124.172L121.457 33.3281L119.123 33.2329V37.7084H116.504V25.2817H116.551ZM127.22 51.5157C127.03 51.9918 126.744 52.4203 126.315 52.7536C125.887 53.0869 125.363 53.3726 124.744 53.563C124.124 53.7535 123.362 53.8487 122.505 53.8487C121.457 53.8487 120.457 53.6582 119.6 53.2297C118.742 52.8488 118.028 52.2775 117.552 51.5633L119.409 49.9921C119.838 50.5159 120.362 50.8492 120.886 51.0872C121.457 51.3253 122.029 51.4205 122.648 51.4205C123.41 51.4205 123.982 51.3253 124.315 51.0872C124.696 50.8968 124.839 50.5159 124.839 50.0398C124.839 49.8493 124.791 49.6589 124.744 49.516C124.648 49.3732 124.553 49.2304 124.315 49.0875C124.124 48.9447 123.839 48.8495 123.458 48.7066C123.077 48.6114 122.6 48.4686 121.981 48.3257C121.41 48.1829 120.886 48.0401 120.362 47.8496C119.885 47.6592 119.457 47.4687 119.076 47.1831C118.742 46.8974 118.456 46.5641 118.266 46.1356C118.075 45.7071 117.98 45.231 117.98 44.612C117.98 44.0407 118.075 43.517 118.314 43.0885C118.552 42.66 118.885 42.2791 119.266 41.9458C119.695 41.6125 120.171 41.3745 120.695 41.2316C121.267 41.0888 121.838 40.9936 122.457 40.9936C123.458 40.9936 124.315 41.184 125.077 41.5173C125.839 41.8506 126.506 42.3267 127.125 42.9456L125.268 44.6597C124.839 44.2311 124.41 43.9455 123.934 43.7074C123.458 43.4694 122.934 43.3741 122.362 43.3741C122.029 43.3741 121.743 43.4217 121.505 43.4694C121.267 43.517 121.076 43.6122 120.933 43.7074C120.79 43.8026 120.695 43.9455 120.647 44.0407C120.6 44.1835 120.552 44.3264 120.552 44.4692C120.552 44.6597 120.6 44.8501 120.647 44.9929C120.743 45.1358 120.886 45.231 121.076 45.3738C121.267 45.469 121.552 45.5643 121.838 45.6595C122.172 45.7547 122.6 45.8499 123.077 45.9928C123.601 46.088 124.077 46.2308 124.601 46.4213C125.125 46.5641 125.553 46.8022 125.982 47.0878C126.411 47.3735 126.697 47.7068 126.982 48.1829C127.22 48.6114 127.363 49.1827 127.363 49.8493C127.506 50.4683 127.411 50.992 127.22 51.5157ZM128.84 25.2817H137.89V27.7099H131.46V29.8525H136.889V32.2806H131.46V35.2326H138.175V37.6607H128.84V25.2817ZM132.126 53.6582H129.554V41.2792H132.079V53.6582H132.126ZM145.082 53.6582H142.796L138.128 46.8974C137.985 46.6593 137.794 46.4213 137.651 46.1356C137.461 45.8499 137.366 45.6595 137.27 45.469C137.27 45.5643 137.27 45.7547 137.27 45.9928C137.27 46.2308 137.27 46.4689 137.27 46.7546C137.27 46.9926 137.27 47.2783 137.27 47.5163C137.27 47.7544 137.27 47.9925 137.27 48.1829V53.6106H134.746V41.2316H137.175L141.7 47.7544C141.843 47.9925 142.033 48.2305 142.176 48.5162C142.367 48.8019 142.462 48.9923 142.557 49.1828C142.557 49.0875 142.557 48.8971 142.557 48.659C142.557 48.421 142.557 48.1829 142.557 47.9448C142.557 47.6592 142.557 47.4211 142.557 47.1355C142.557 46.8974 142.557 46.6593 142.557 46.4689V41.2316H145.082V53.6582ZM144.034 37.6607H140.128V25.2817H144.224C145.177 25.2817 146.034 25.377 146.797 25.615C147.606 25.8531 148.273 26.1864 148.845 26.6625C149.416 27.1386 149.892 27.8052 150.226 28.5669C150.559 29.3287 150.702 30.3286 150.702 31.4236C150.702 32.5187 150.512 33.4233 150.131 34.2327C149.75 34.9945 149.226 35.6611 148.606 36.1372C147.987 36.6609 147.273 36.9942 146.463 37.2322C145.701 37.5179 144.844 37.6607 144.034 37.6607ZM157.18 53.6582H147.844V41.2792H156.894V43.7074H150.464V45.8499H155.894V48.2781H150.464V51.2777H157.18V53.6582ZM167.278 51.5157C167.087 51.9918 166.801 52.4203 166.373 52.7536C165.944 53.0869 165.42 53.3726 164.801 53.563C164.182 53.7535 163.419 53.8487 162.562 53.8487C161.514 53.8487 160.514 53.6582 159.657 53.2297C158.799 52.8488 158.085 52.2775 157.609 51.5633L159.466 49.9921C159.895 50.5159 160.419 50.8492 160.943 51.0872C161.514 51.3253 162.086 51.4205 162.705 51.4205C163.467 51.4205 164.039 51.3253 164.372 51.0872C164.753 50.8968 164.896 50.5159 164.896 50.0398C164.896 49.8493 164.848 49.6589 164.801 49.516C164.705 49.3732 164.61 49.2304 164.372 49.0875C164.182 48.9447 163.896 48.8495 163.515 48.7066C163.134 48.6114 162.657 48.4686 162.038 48.3257C161.467 48.1829 160.943 48.0401 160.419 47.8496C159.942 47.6592 159.514 47.4687 159.133 47.1831C158.799 46.8974 158.514 46.5641 158.323 46.1356C158.133 45.7071 158.037 45.231 158.037 44.612C158.037 44.0407 158.133 43.517 158.371 43.0885C158.609 42.66 158.942 42.2791 159.323 41.9458C159.752 41.6125 160.228 41.3745 160.752 41.2316C161.324 41.0888 161.895 40.9936 162.514 40.9936C163.515 40.9936 164.372 41.184 165.134 41.5173C165.896 41.8506 166.563 42.3267 167.182 42.9456L165.325 44.6597C164.896 44.2311 164.467 43.9455 163.991 43.7074C163.515 43.4694 162.991 43.3741 162.419 43.3741C162.086 43.3741 161.8 43.4217 161.562 43.4694C161.324 43.517 161.133 43.6122 160.99 43.7074C160.847 43.8026 160.752 43.9455 160.705 44.0407C160.657 44.1835 160.609 44.3264 160.609 44.4692C160.609 44.6597 160.657 44.8501 160.705 44.9929C160.8 45.1358 160.943 45.231 161.133 45.3738C161.324 45.469 161.61 45.5643 161.895 45.6595C162.229 45.7547 162.657 45.8499 163.134 45.9928C163.658 46.088 164.134 46.2308 164.658 46.4213C165.182 46.5641 165.61 46.8022 166.039 47.0878C166.468 47.3735 166.754 47.7068 167.039 48.1829C167.278 48.6114 167.42 49.1827 167.42 49.8493C167.563 50.4683 167.468 50.992 167.278 51.5157ZM167.992 27.7099H164.229V37.6607H161.61V27.7099H157.847V25.2817H167.944V27.7099H167.992ZM178.185 51.5157C177.994 51.9918 177.709 52.4203 177.28 52.7536C176.851 53.0869 176.327 53.3726 175.708 53.563C175.089 53.7535 174.327 53.8487 173.469 53.8487C172.422 53.8487 171.421 53.6582 170.564 53.2297C169.707 52.8488 168.992 52.2775 168.516 51.5633L170.373 49.9921C170.802 50.5159 171.326 50.8492 171.85 51.0872C172.422 51.3253 172.993 51.4205 173.612 51.4205C174.374 51.4205 174.946 51.3253 175.279 51.0872C175.66 50.8968 175.803 50.5159 175.803 50.0398C175.803 49.8493 175.756 49.6589 175.708 49.516C175.613 49.3732 175.518 49.2304 175.279 49.0875C175.089 48.9447 174.803 48.8495 174.422 48.7066C174.041 48.6114 173.565 48.4686 172.993 48.3257C172.422 48.1829 171.898 48.0401 171.374 47.8496C170.897 47.6592 170.469 47.4687 170.088 47.1831C169.754 46.8974 169.469 46.5641 169.278 46.1356C169.087 45.7071 168.992 45.231 168.992 44.612C168.992 44.0407 169.087 43.517 169.326 43.0885C169.564 42.66 169.897 42.2791 170.278 41.9458C170.707 41.6125 171.183 41.3745 171.707 41.2316C172.279 41.0888 172.85 40.9936 173.469 40.9936C174.47 40.9936 175.327 41.184 176.089 41.5173C176.851 41.8506 177.518 42.3267 178.137 42.9456L176.28 44.6597C175.851 44.2311 175.422 43.9455 174.946 43.7074C174.47 43.4694 173.946 43.3741 173.374 43.3741C173.041 43.3741 172.755 43.4217 172.517 43.4694C172.279 43.517 172.088 43.6122 171.945 43.7074C171.802 43.8026 171.707 43.9455 171.66 44.0407C171.612 44.1835 171.564 44.3264 171.564 44.4692C171.564 44.6597 171.612 44.8501 171.66 44.9929C171.755 45.1358 171.898 45.231 172.088 45.3738C172.279 45.469 172.564 45.5643 172.85 45.6595C173.184 45.7547 173.612 45.8499 174.089 45.9928C174.613 46.088 175.089 46.2308 175.613 46.4213C176.137 46.5641 176.565 46.8022 176.994 47.0878C177.423 47.3735 177.709 47.7068 177.994 48.1829C178.232 48.6114 178.375 49.1827 178.375 49.8493C178.518 50.4683 178.423 50.992 178.185 51.5157ZM179.042 37.6607H169.707V25.2817H178.756V27.7099H172.326V29.8525H177.756V32.2806H172.326V35.2326H179.042V37.6607ZM190.997 34.2803C190.616 35.0421 190.092 35.7087 189.473 36.1848C188.854 36.7085 188.14 37.0418 187.33 37.2799C186.52 37.5179 185.71 37.6131 184.901 37.6131H180.995V25.2341H185.091C186.044 25.2341 186.901 25.3294 187.663 25.5674C188.473 25.8055 189.14 26.1388 189.711 26.6149C190.283 27.091 190.759 27.7575 191.093 28.5193C191.426 29.2811 191.569 30.281 191.569 31.376C191.569 32.5663 191.378 33.4709 190.997 34.2803Z" fill="white"/>
<path d="M85.401 29.2335C85.3058 28.9002 85.2105 28.6145 85.1152 28.3765C85.0676 28.6145 84.9723 28.9002 84.8295 29.2335C84.7342 29.5668 84.5913 29.9476 84.4484 30.2809L83.5911 32.5187H86.5918L85.7344 30.2809C85.6392 29.9476 85.5439 29.5668 85.401 29.2335Z" fill="white"/>
<path d="M144.129 27.6621H142.748V35.2323H144.034C144.701 35.2323 145.32 35.1371 145.796 34.9467C146.32 34.7562 146.701 34.5182 147.035 34.1849C147.368 33.8516 147.606 33.4707 147.749 32.9946C147.892 32.5185 147.987 31.9948 147.987 31.4234C147.987 30.1855 147.702 29.2333 147.082 28.5667C146.511 27.9954 145.511 27.6621 144.129 27.6621Z" fill="white"/>
<path d="M100.5 45.5639C100.691 45.3258 100.833 45.0878 100.833 44.7069C100.833 44.326 100.691 44.0403 100.452 43.8023C100.214 43.6118 99.8332 43.5166 99.2617 43.5166H96.0228V45.8496H99.4046C99.9285 45.8972 100.262 45.802 100.5 45.5639Z" fill="white"/>
<path d="M184.996 27.6621H183.615V35.2323H184.901C185.568 35.2323 186.187 35.1371 186.663 34.9467C187.187 34.7562 187.568 34.5182 187.901 34.1849C188.235 33.8516 188.473 33.4707 188.616 32.9946C188.759 32.5185 188.854 31.9948 188.854 31.4234C188.854 30.1855 188.568 29.2333 187.949 28.5667C187.33 27.9954 186.377 27.6621 184.996 27.6621Z" fill="white"/>
</g>
<defs>
<clipPath id="clip0_1_92">
<rect width="202" height="71" fill="white"/>
</clipPath>
</defs>
</svg>
