<svg width="21" height="21" viewBox="0 0 21 21" fill="none" xmlns="http://www.w3.org/2000/svg">
<g clip-path="url(#clip0_1_109)">
<path d="M19.6875 0H1.3125C0.594727 0 0 0.594727 0 1.3125V19.6875C0 20.4053 0.594727 21 1.3125 21H11.228V12.8379H8.60303V9.81299H11.228V7.19824C11.228 4.80908 12.6841 3.20947 15.5654 3.20947C16.8369 3.20947 17.7188 3.35303 17.7188 3.35303V6.08057H15.75C14.8784 6.08057 14.4375 6.57275 14.4375 7.43408V9.81299H17.5034L17.0625 12.8379H14.4375V21H19.6875C20.4053 21 21 20.4053 21 19.6875V1.3125C21 0.594727 20.4053 0 19.6875 0Z" fill="white"/>
</g>
<defs>
<clipPath id="clip0_1_109">
<rect width="21" height="21" fill="white"/>
</clipPath>
</defs>
</svg>
