<svg width="21" height="21" viewBox="0 0 21 21" fill="none" xmlns="http://www.w3.org/2000/svg">
<g clip-path="url(#clip0_1_111)">
<path d="M17.9341 0H3.06592C1.37402 0 0 1.37402 0 3.06592V17.9341C0 19.626 1.37402 21 3.06592 21H17.9341C19.626 21 21 19.626 21 17.9341V3.06592C21 1.37402 19.626 0 17.9341 0ZM18.8159 5.25C18.8159 5.49609 18.6211 5.69092 18.375 5.69092H15.75C15.5039 5.69092 15.3091 5.49609 15.3091 5.25V2.625C15.3091 2.37891 15.5039 2.18408 15.75 2.18408H18.375C18.6211 2.18408 18.8159 2.37891 18.8159 2.625V5.25ZM10.5 6.5625C12.6738 6.5625 14.4375 8.32617 14.4375 10.5C14.4375 12.6738 12.6738 14.4375 10.5 14.4375C8.32617 14.4375 6.5625 12.6738 6.5625 10.5C6.5625 8.32617 8.32617 6.5625 10.5 6.5625ZM18.8159 18.375C18.8159 18.6211 18.6211 18.8159 18.375 18.8159H2.625C2.37891 18.8159 2.18408 18.6211 2.18408 18.375V9.1875H4.51172C4.41943 9.60791 4.37842 10.0488 4.37842 10.5C4.37842 13.8838 7.11621 16.6216 10.5 16.6216C13.8838 16.6216 16.6216 13.8838 16.6216 10.5C16.6216 10.0488 16.5806 9.60791 16.4883 9.1875H18.8159V18.375Z" fill="white"/>
</g>
<defs>
<clipPath id="clip0_1_111">
<rect width="21" height="21" fill="white"/>
</clipPath>
</defs>
</svg>
